<?xml version="1.0" standalone="no"?>
<!DOCTYPE svg PUBLIC "-//W3C//DTD SVG 20010904//EN"
 "http://www.w3.org/TR/2001/REC-SVG-20010904/DTD/svg10.dtd">
<svg version="1.0" xmlns="http://www.w3.org/2000/svg"
 width="800.000000pt" height="422.000000pt" viewBox="0 0 800.000000 422.000000"
 preserveAspectRatio="xMidYMid meet">

<g transform="translate(0.000000,422.000000) scale(0.100000,-0.100000)"
fill="#000000" stroke="none">
<path d="M0 2110 l0 -2110 4000 0 4000 0 0 2110 0 2110 -2292 -1 c-1261 -1
-2262 -5 -2225 -10 179 -20 394 -83 562 -164 191 -91 408 -258 546 -418 86
-100 189 -253 223 -330 l25 -56 -32 7 c-17 4 -147 7 -287 7 -212 -1 -281 -5
-410 -23 -467 -69 -827 -188 -1066 -353 -77 -53 -164 -140 -189 -189 -35 -67
-41 -193 -21 -447 4 -55 33 -101 85 -138 l42 -30 87 23 c174 45 335 144 434
267 67 83 65 141 -9 217 -33 34 -35 40 -31 83 9 73 38 96 213 162 130 50 474
123 578 123 33 0 39 10 27 50 l-9 33 36 -6 c37 -6 73 -32 73 -52 0 -8 34 -14
108 -18 149 -8 209 -34 239 -105 12 -30 12 -35 -9 -63 -17 -22 -23 -47 -26
-98 l-4 -68 48 -37 c65 -50 160 -94 245 -114 38 -9 69 -21 69 -27 0 -21 71
-159 102 -198 28 -35 110 -97 128 -97 4 0 10 48 13 108 10 166 34 222 96 222
24 0 40 -12 83 -64 29 -36 57 -65 61 -65 18 -2 34 62 25 98 -5 20 -18 83 -28
141 -17 88 -24 108 -45 123 -27 20 -35 67 -11 67 8 0 18 -4 21 -10 3 -5 10
-10 14 -10 12 0 31 47 32 78 l1 27 11 -27 c10 -26 15 -28 63 -28 l53 0 6 -44
c9 -59 -3 -124 -27 -148 -16 -16 -18 -25 -10 -42 9 -21 67 -46 107 -46 10 0
56 -29 104 -64 102 -75 140 -100 145 -95 2 2 18 48 35 102 32 101 39 161 20
173 -16 9 -41 73 -33 85 3 6 12 3 21 -8 13 -16 14 -13 9 35 -5 47 6 72 17 40
2 -7 3 -5 2 4 -2 10 1 21 6 24 5 3 9 -2 9 -10 0 -10 6 -13 15 -10 8 4 15 1 15
-6 0 -6 4 -9 9 -6 13 8 24 -99 16 -164 -7 -67 -32 -233 -41 -277 l-6 -33 33 8
c19 4 93 7 164 7 108 0 142 -4 205 -23 144 -46 278 -128 393 -243 l58 -58 49
30 c71 44 134 63 159 49 39 -21 26 -57 -49 -134 l-69 -72 29 -51 29 -51 -97
-76 c-134 -105 -205 -140 -356 -176 -172 -41 -268 -93 -316 -172 -16 -27 -17
-26 -55 135 -42 179 -51 202 -94 242 -30 29 -59 42 -226 101 l-100 35 -92 -27
-92 -28 32 -20 32 -20 -24 -6 -25 -6 35 -27 c28 -22 32 -30 23 -44 -6 -10 -20
-19 -31 -21 -23 -3 -118 51 -132 76 -8 14 -14 14 -52 2 -34 -10 -127 -13 -399
-11 -324 2 -358 0 -390 -16 -46 -24 -80 -76 -80 -124 l0 -39 -48 0 c-59 0
-111 -27 -136 -70 -14 -24 -32 -128 -72 -418 -70 -508 -57 -452 -105 -452
l-40 0 5 43 c20 146 27 243 36 474 5 143 6 270 3 281 -5 21 -5 21 -26 1 -64
-60 -299 -74 -398 -25 -16 8 -31 11 -33 8 -10 -19 -33 -997 -30 -1279 l1 -103
-1079 0 c-1210 0 -1124 -5 -1176 73 -27 40 -27 42 -30 254 -2 117 -6 213 -10
213 -4 -1 -18 -7 -32 -14 -22 -12 -29 -12 -64 6 -180 92 -660 238 -782 238
-49 0 -11 -16 67 -29 104 -16 252 -55 393 -102 133 -44 333 -126 341 -140 3
-4 -1 -19 -9 -31 -8 -13 -20 -43 -26 -68 l-12 -45 -20 39 c-27 54 -110 132
-154 146 -48 16 -117 5 -154 -26 -54 -46 -48 -115 17 -201 l28 -37 -25 8 c-14
4 -72 10 -130 13 -128 6 -223 -12 -327 -61 l-72 -35 -10 32 c-34 108 -71 299
-71 369 0 26 -8 39 -34 60 -46 37 -64 90 -42 123 9 14 29 31 46 40 22 11 31
24 35 53 3 20 12 63 19 94 l12 58 -30 5 c-17 2 -60 9 -96 14 l-65 10 98 -2 99
-2 23 60 c33 88 72 162 121 232 l45 62 67 -41 c134 -82 166 -119 217 -258 20
-52 41 -88 69 -116 36 -36 51 -44 121 -59 44 -10 94 -23 110 -30 39 -16 136
-109 166 -160 22 -39 46 -64 61 -65 4 0 8 134 10 298 l3 299 28 42 c18 28 43
49 68 60 21 9 37 20 36 25 -8 26 -130 77 -249 105 -131 31 -209 64 -288 122
l-44 32 32 11 32 11 -29 50 c-16 28 -77 101 -135 162 -112 118 -128 151 -85
173 48 26 207 -64 394 -223 l100 -85 29 16 c90 53 169 154 223 287 49 120 51
116 -74 165 -143 56 -147 60 -140 135 6 62 45 240 73 335 20 71 64 170 75 170
5 0 6 -8 3 -17 -3 -10 1 -8 8 5 17 28 31 18 17 -12 -7 -13 -1 -10 15 9 17 20
25 25 26 15 0 -9 -6 -22 -12 -30 -11 -12 -10 -12 5 -1 26 21 32 6 9 -26 -35
-51 -39 -96 -4 -61 6 6 15 9 18 5 11 -10 -25 -57 -57 -75 -16 -10 -32 -24 -35
-32 -4 -8 -9 -72 -12 -141 -5 -144 -14 -130 96 -145 l52 -7 0 259 c0 295 11
390 65 551 71 213 173 373 354 554 260 259 572 410 961 464 81 11 -139 13
-1482 14 l-1578 1 0 -2110z m6016 -582 c-3 -13 -11 -75 -17 -138 l-13 -115
-17 103 c-14 85 -22 109 -43 131 -15 15 -23 30 -19 34 3 4 30 7 60 7 50 0 53
-1 49 -22z m-670 -58 c73 -36 126 -91 163 -169 22 -47 26 -70 26 -141 0 -72
-4 -94 -28 -145 -102 -219 -398 -269 -561 -95 -57 61 -85 117 -94 188 -16 124
21 226 113 310 106 97 250 117 381 52z m1883 -244 c6 -52 11 -121 11 -153 l0
-59 136 28 c127 25 324 47 324 36 0 -3 -51 -11 -112 -18 -97 -10 -336 -54
-343 -62 -1 -2 -5 -34 -8 -71 l-6 -68 37 8 c57 12 222 9 271 -6 61 -18 105
-63 97 -99 -10 -38 -38 -74 -76 -97 -28 -16 -60 -20 -191 -25 -87 -3 -160 -8
-164 -11 -5 -6 -42 -170 -61 -275 l-6 -31 -87 -6 c-47 -3 -97 -9 -111 -13
l-25 -8 28 37 c65 86 71 155 17 201 -37 31 -106 42 -154 26 -44 -14 -127 -92
-154 -146 l-20 -39 -12 45 c-6 25 -18 55 -26 68 -8 12 -12 27 -9 31 8 14 208
96 341 140 141 47 289 86 393 102 78 13 116 29 67 29 -121 0 -595 -144 -782
-238 -38 -19 -40 -19 -79 -1 -75 35 -137 18 -212 -56 -45 -46 -53 -51 -54 -32
0 12 -3 55 -7 94 l-8 73 30 10 c16 5 57 10 92 10 55 0 70 5 122 37 38 23 67
50 78 73 24 46 129 149 168 165 17 7 67 20 111 30 70 15 85 23 121 59 28 28
49 64 69 116 36 99 77 163 128 200 39 29 42 29 49 11 3 -11 11 -62 17 -115z
m-992 -157 c5 -31 0 -42 -28 -72 -30 -32 -155 -94 -166 -83 -5 4 86 355 95
371 8 13 93 -172 99 -216z m-2169 -583 l5 -466 -44 0 c-25 0 -62 9 -84 20 -22
11 -45 20 -53 20 -10 0 -12 8 -8 27 3 16 21 122 40 238 72 432 116 649 129
636 6 -6 12 -195 15 -475z m212 -375 c0 -22 4 -51 10 -65 8 -22 7 -26 -9 -26
-15 0 -107 35 -119 46 -2 1 -1 21 3 43 l7 41 54 0 54 0 0 -39z m889 -16 l-31
-55 49 -1 c352 -10 322 -16 -94 -17 l-461 -2 5 43 c2 23 6 52 9 65 l4 22 275
0 275 0 -31 -55z"/>
<path d="M1923 2727 c-12 -7 -31 -24 -42 -38 l-21 -27 21 -113 c17 -101 23
-117 50 -141 58 -54 150 -23 164 54 3 18 12 71 20 118 l14 85 -39 38 c-35 33
-44 37 -92 37 -29 -1 -63 -6 -75 -13z m148 -58 c26 0 34 -112 12 -158 -18 -35
-18 -35 -87 -36 -62 0 -70 2 -84 24 -26 39 -16 143 17 169 11 10 32 12 71 7
30 -4 62 -6 71 -6z"/>
<path d="M3963 2619 c-59 -18 -100 -109 -72 -160 8 -13 30 -46 49 -72 33 -46
35 -47 44 -26 8 18 5 25 -17 41 -15 11 -27 26 -27 34 0 16 26 19 35 4 5 -8 11
-7 21 1 11 9 17 9 28 0 11 -9 14 -8 12 6 0 10 -7 20 -14 23 -14 6 -11 8 86 50
28 13 52 27 52 32 0 4 -13 22 -28 39 -24 27 -37 33 -83 35 -30 2 -68 -1 -86
-7z"/>
<path d="M4150 2490 c-14 -4 -43 -9 -65 -11 -32 -1 -34 -3 -12 -6 19 -3 27
-10 28 -26 1 -17 2 -18 6 -4 2 9 7 17 10 17 3 0 12 -8 20 -17 13 -16 13 -16 4
4 -15 30 -14 33 14 33 14 0 25 5 25 10 0 6 -1 10 -2 9 -2 -1 -14 -5 -28 -9z"/>
<path d="M4058 2413 c7 -3 16 -2 19 1 4 3 -2 6 -13 5 -11 0 -14 -3 -6 -6z"/>
<path d="M5790 2305 c0 -2 5 -16 12 -30 12 -26 20 -29 52 -16 17 6 14 10 -18
29 -38 22 -46 25 -46 17z"/>
</g>
</svg>
